<?xml version="1.0" encoding="UTF-8"?>
<svg width="16px" height="16px" viewBox="0 0 16 16" version="1.1" xmlns="http://www.w3.org/2000/svg" xmlns:xlink="http://www.w3.org/1999/xlink">
    <!-- Generator: sketchtool 60 (101010) - https://sketch.com -->
    <title>B9587B6D-4974-4D21-A5EC-BEDCBAF8CEBE</title>
    <desc>Created with sketchtool.</desc>
    <g id="PDP-–-Security-Kit" stroke="none" stroke-width="1" fill="none" fill-rule="evenodd">
        <g id="KAN_D_PDP_Kit_1.1" transform="translate(-1150.000000, -328.000000)" fill="#526DAA" fill-rule="nonzero">
            <g id="Above-Fold" transform="translate(49.000000, 171.000000)">
                <g id="Product" transform="translate(761.000000, 23.000000)">
                    <g id="Product-Form">
                        <g id="Title-Area">
                            <g id="Membership-Bar" transform="translate(0.000000, 128.000000)">
                                <g id="noun_help_2302551" transform="translate(340.000000, 6.000000)">
                                    <path d="M8,1.28 C11.7113535,1.28 14.72,4.28864648 14.72,8 C14.72,11.7113535 11.7113535,14.72 8,14.72 C4.28864648,14.72 1.28,11.7113535 1.28,8 C1.28,4.28864648 4.28864648,1.28 8,1.28 M8,0 C3.581722,0 0,3.581722 0,8 C0,12.418278 3.581722,16 8,16 C12.418278,16 16,12.418278 16,8 C16,5.87826808 15.1571453,3.84343678 13.6568542,2.34314575 C12.1565632,0.842854723 10.1217319,0 8,0 Z" id="Shape"></path>
                                    <path d="M8.08344774,3.76797489 L8.26820672,3.78431993 C8.72566582,3.81189497 9.1733756,3.92285751 9.58718054,4.11122075 C9.95678873,4.27379709 10.2718695,4.53126664 10.4972896,4.8549201 C10.6689949,5.10984042 10.775102,5.39997534 10.8069319,5.70159322 C10.8426813,5.9624188 10.8205313,6.22751409 10.7419242,6.47961716 C10.6442856,6.78042065 10.4743937,7.05524819 10.2458121,7.28215866 C9.98433699,7.53223859 9.69784664,7.75724041 9.39044644,7.95393984 C9.21937331,8.06672062 9.06711823,8.18440492 8.90630949,8.30208921 C8.76082306,8.4169898 8.65131453,8.56799494 8.5898242,8.7385018 C8.55560958,8.82676502 8.51626276,8.91502824 8.4803374,9.00329146 C8.39002345,9.24374805 8.15237873,9.40490539 7.88500292,9.40701397 C7.73720985,9.42251041 7.58776903,9.39993618 7.4521879,9.34163381 C7.24383772,9.24436917 7.09870535,9.05561301 7.0638519,8.83657205 C7.00933826,8.53322499 7.08318257,8.22161176 7.26913965,7.97028488 C7.41718551,7.76351337 7.59847432,7.58037318 7.80630928,7.42762953 C8.03041507,7.25273759 8.2613638,7.08601817 8.49060179,6.91112624 C8.68083742,6.77200625 8.84018121,6.59809282 8.95934216,6.39952646 C9.14862518,6.05495158 9.1013206,5.63526732 8.83959097,5.33709881 C8.70390971,5.19578978 8.52375187,5.10054434 8.32637159,5.06577113 C8.06358573,5.00715847 7.78969613,5.01165093 7.52917081,5.07884716 C7.25884273,5.14939 7.03365535,5.32818786 6.91159682,5.56919839 C6.83119245,5.71303475 6.76105246,5.86014011 6.68578029,6.00561098 C6.63057171,6.11561707 6.55591567,6.21569954 6.46509595,6.30145622 C6.30595334,6.43502345 6.09595348,6.49953686 5.88515805,6.47961716 C5.75694953,6.4764272 5.63140948,6.44391842 5.51906155,6.38481592 C5.30814591,6.28057412 5.17603915,6.07231061 5.1769153,5.84542958 C5.16816067,5.48445805 5.28889131,5.13148369 5.51906155,4.84511308 C5.78516139,4.50143814 6.13838116,4.2280786 6.54550032,4.0507441 C6.85258613,3.91149347 7.18135815,3.82095552 7.51890642,3.78268543 L7.71050832,3.76470588 L8.08344774,3.76797489 Z" id="Path"></path>
                                    <path d="M7.91293967,12.2352941 C7.8619767,12.2251096 7.81101372,12.2166226 7.7617495,12.2030433 C7.29733882,12.0815961 6.99884124,11.6303482 7.06902635,11.1558326 C7.13921145,10.6813171 7.55558194,10.3356361 8.0352971,10.3536111 C8.51501226,10.3715861 8.90430304,10.7474552 8.938724,11.2258904 C8.97314495,11.7043256 8.64166271,12.131968 8.16945334,12.21832 L8.0862138,12.2352941 L7.91293967,12.2352941 Z" id="Path"></path>
                                </g>
                            </g>
                        </g>
                    </g>
                </g>
            </g>
        </g>
    </g>
</svg>