<?xml version="1.0" encoding="UTF-8"?>
<svg viewBox="0 0 74 74" version="1.1" xmlns="http://www.w3.org/2000/svg" xmlns:xlink="http://www.w3.org/1999/xlink">
    <!-- Generator: Sketch 55 (78076) - https://sketchapp.com -->
    <title>Shape</title>
    <desc>Created with Sketch.</desc>
    <path d="M50.5,37.5 L29.5,49.5 L29.5,25.5 L50.5,37.5 Z M37,74 C16.5654643,74 0,57.4345357 0,37 C0,16.5654643 16.5654643,0 37,0 C57.4345357,0 74,16.5654643 74,37 C74,57.4345357 57.4345357,74 37,74 Z M37,69 C54.673112,69 69,54.673112 69,37 C69,19.326888 54.673112,5 37,5 C19.326888,5 5,19.326888 5,37 C5,54.673112 19.326888,69 37,69 Z"></path>
</svg>