<?xml version="1.0" encoding="UTF-8"?>
<svg width="8px" height="8px" viewBox="0 0 8 8" version="1.1" xmlns="http://www.w3.org/2000/svg" xmlns:xlink="http://www.w3.org/1999/xlink">
    <!-- Generator: sketchtool 60 (101010) - https://sketch.com -->
    <title>E8DB066B-FB05-4848-9874-862B92A8B383</title>
    <desc>Created with sketchtool.</desc>
    <g id="PDP-–-Camera" stroke="none" stroke-width="1" fill="none" fill-rule="evenodd">
        <g id="KAN_D_PDP_Camera_1.1" transform="translate(-1310.000000, -4352.000000)" fill="#000000" fill-rule="nonzero">
            <g id="FAQ" transform="translate(0.000000, 3990.000000)">
                <g id="Accordions" transform="translate(745.000000, 124.000000)">
                    <g id="Group-4" transform="translate(561.000000, 19.000000)">
                        <g id="Group-10" transform="translate(0.000000, 215.000000)">
                            <path d="M8,4 C7.54295172,4 7.17241379,4.37052407 7.17241379,4.82758606 L7.17241379,7.17241049 L4.82758621,7.17241049 C4.37052414,7.17241049 4,7.54292077 4,8 C4,8.45704889 4.37052414,8.82758675 4.82758621,8.82758675 L7.17241379,8.82758675 L7.17241379,11.1724139 C7.17241379,11.6294759 7.54295172,12 8,12 C8.45707586,12 8.82758621,11.6294759 8.82758621,11.1724139 L8.82758621,8.82758675 L11.1724138,8.82758675 C11.6294759,8.82758675 12,8.45704889 12,8 C12,7.54292077 11.6294759,7.17241049 11.1724138,7.17241049 L8.82758621,7.17241049 L8.82758621,4.82758606 C8.82758621,4.37052407 8.45707586,4 8,4 L8,4 Z" id="Path"></path>
                        </g>
                    </g>
                </g>
            </g>
        </g>
    </g>
</svg>