<svg height="28" width="25" xmlns="http://www.w3.org/2000/svg"><g fill="#231f20" fill-rule="evenodd"><path d="M20.27 21.22c0 .627-.527 1.135-1.184 1.135H5.38c-.655 0-1.184-.508-1.184-1.136V9.47c3.592-.013 11.973-.013 16.074 0zM9.273 3.447a.26.26 0 0 1-.118.354.283.283 0 0 1-.367-.115L7.055.446a.256.256 0 0 1 .12-.351.275.275 0 0 1 .366.114zm6.311.137a.278.278 0 0 1-.373.094.254.254 0 0 1-.1-.356l1.9-3.152a.276.276 0 0 1 .37-.097.255.255 0 0 1 .102.359l-1.9 3.152zm8.871 14.449c0 .913-.772 1.655-1.727 1.655-.952 0-1.727-.74-1.727-1.655V10.79c0-.915.772-1.655 1.727-1.655s1.727.74 1.727 1.655v7.244zm-21.003 0c0 .913-.774 1.655-1.724 1.655-.955 0-1.727-.74-1.727-1.655V10.79c0-.915.77-1.655 1.727-1.655.95 0 1.724.74 1.724 1.655v7.244z"/><path d="M10.968 26.325c0 .913-.772 1.655-1.73 1.655-.952 0-1.721-.74-1.721-1.655v-7.244c0-.915.77-1.658 1.721-1.658.958 0 1.73.743 1.73 1.658zm5.987 0c0 .913-.772 1.655-1.727 1.655-.952 0-1.727-.74-1.727-1.655v-7.244c0-.915.772-1.658 1.727-1.658s1.727.743 1.727 1.658zM12.233 1.73c-4.197 0-7.657 3.065-8.118 7.005h16.234c-.46-3.94-3.916-7.006-8.116-7.006zM8.57 5.976c-.375 0-.678-.29-.678-.648 0-.356.303-.646.678-.646.37 0 .673.29.673.646a.662.662 0 0 1-.673.648zm7.341 0a.66.66 0 0 1-.675-.648c0-.356.3-.646.675-.646a.66.66 0 0 1 .673.646.66.66 0 0 1-.673.648z"/></g></svg>