<svg height="28" width="22" xmlns="http://www.w3.org/2000/svg"><path d="M18.375 14.891c-.03-3.537 2.798-5.258 2.928-5.34-1.602-2.416-4.086-2.748-4.958-2.774-2.085-.226-4.106 1.292-5.169 1.292-1.082 0-2.72-1.268-4.481-1.231-2.269.034-4.392 1.395-5.555 3.508-2.401 4.306-.61 10.633 1.692 14.112 1.15 1.706 2.494 3.609 4.256 3.54 1.722-.07 2.366-1.137 4.444-1.137 2.06 0 2.665 1.137 4.46 1.095 1.847-.029 3.013-1.71 4.123-3.432 1.331-1.953 1.865-3.877 1.885-3.977-.043-.016-3.59-1.416-3.625-5.656zM14.984 4.487c.925-1.197 1.56-2.832 1.384-4.487-1.341.063-3.018.96-3.983 2.134-.855 1.035-1.617 2.73-1.422 4.322 1.507.116 3.053-.787 4.021-1.969z" fill="#231f20" fill-rule="evenodd"/></svg>