<svg height="45" width="49" xmlns="http://www.w3.org/2000/svg"><g fill="none" fill-rule="evenodd" stroke="#231f20" stroke-linecap="round" stroke-linejoin="round" stroke-width="2"><path d="M47.054 20.3c0 10.341-10.181 18.73-22.743 18.73-2.804 0-5.488-.42-7.968-1.184l-13.07 6.14L8.39 33.674C4.179 30.276 1.569 25.537 1.569 20.3c0-10.344 10.18-18.73 22.742-18.73S47.054 9.956 47.054 20.3z"/><path d="M15.412 20.533c0 1.651-1.33 2.994-2.966 2.994-1.638 0-2.967-1.343-2.967-2.994 0-1.655 1.329-2.994 2.967-2.994 1.637 0 2.966 1.339 2.966 2.994zm11.866 0c0 1.651-1.33 2.994-2.966 2.994-1.638 0-2.967-1.343-2.967-2.994 0-1.655 1.329-2.994 2.967-2.994 1.637 0 2.966 1.339 2.966 2.994zm11.865 0c0 1.651-1.329 2.994-2.966 2.994-1.638 0-2.967-1.343-2.967-2.994 0-1.655 1.33-2.994 2.967-2.994s2.966 1.339 2.966 2.994z"/></g></svg>