<svg height="47" width="46" xmlns="http://www.w3.org/2000/svg"><path d="M14.18 19.946a3.79 3.79 0 0 0 0-5.354l-4.016-4.013a3.787 3.787 0 0 0-5.35 0L2.61 12.781a5.667 5.667 0 0 0-.717 7.142c6.398 9.672 14.931 18.203 24.601 24.602a5.678 5.678 0 0 0 7.144-.718l2.202-2.202a3.78 3.78 0 0 0 0-5.352l-4.015-4.012a3.78 3.78 0 0 0-5.352 0l-1.338 1.336A89.832 89.832 0 0 1 12.84 21.284zm11.367.924L44.471 1.946m-6.619 18.921H25.55v-12.3" fill="none" stroke="#000" stroke-linecap="round" stroke-linejoin="round" stroke-width="2"/></svg>