<svg height="42" width="41" xmlns="http://www.w3.org/2000/svg"><g fill="none" fill-rule="evenodd" stroke="#000" stroke-linecap="round" stroke-linejoin="round" stroke-width="1.5"><path d="M39.913 21.217a3.48 3.48 0 0 1-3.478 3.478M5.497 27.304H1.652v-5.217h3.845M16.353 36.37l-1.658 3.978H9.478V33.11m16.133 3.173l1.694 4.065h5.218v-7.606M8.262 17.4l-.522-5.749 5.1 2.552"/><path d="M25.99 13.212c6.085 1.668 10.445 6.18 10.445 11.483 0 6.724-7.009 12.174-15.652 12.174-8.645 0-15.652-5.45-15.652-12.174 0-5.302 4.36-9.815 10.445-11.483"/><path d="M13.826 21.217a1.74 1.74 0 1 1-3.48-.001 1.74 1.74 0 0 1 3.48.001zM27.74 8.608a6.957 6.957 0 1 1-13.914 0 6.957 6.957 0 0 1 13.913 0z"/><path d="M27.74 8.608a6.957 6.957 0 1 1-13.914 0 6.957 6.957 0 0 1 13.913 0z"/><path d="M18.174 11.673c.986.943 2.817 1.129 4.089.412 1.271-.714 1.502-2.06.516-3.003-.492-.471-1.196-.755-1.937-.83-.617-.06-1.638-.297-2.05-.69-.821-.786-.628-1.906.433-2.503 1.059-.596 3.019-.443 3.841.345m-2.283-1.578v9.565"/></g></svg>