<svg xmlns="http://www.w3.org/2000/svg" xmlns:xlink="http://www.w3.org/1999/xlink" viewBox="0 0 69.83 69.83"><defs><style>.cls-1{fill:none;}.cls-2{fill:#fff;stroke:#434867;stroke-miterlimit:10;stroke-width:1.5px;}.cls-3{clip-path:url(#clip-path);}.cls-4{clip-path:url(#clip-path-2);}.cls-5{fill:#434867;}</style><clipPath id="clip-path"><rect class="cls-1" x="23.84" y="14.22" width="24.2" height="41.38"/></clipPath><clipPath id="clip-path-2"><rect class="cls-1" x="23.84" y="14.22" width="24.2" height="41.39"/></clipPath></defs><title>Account_Reward</title><g id="Layer_2" data-name="Layer 2"><g id="Layer_1-2" data-name="Layer 1"><g id="Layer_1-2-2" data-name="Layer 1-2"><rect class="cls-2" x="0.75" y="0.75" width="68.33" height="68.33" rx="11.74"/><g id="Artwork_1" data-name="Artwork 1"><g class="cls-3"><g class="cls-4"><path class="cls-5" d="M30.65,19.16l3.85-4.81a.07.07,0,0,0,0-.11l-.05,0c-.63,0-3.11.32-3.93,2.14a5.91,5.91,0,0,0-.13,2.71.16.16,0,0,0,.19.13.12.12,0,0,0,.08,0"/><path class="cls-5" d="M46.15,43.62c-.1-.2-.28-.08-.24.05s.2,1.15.2,1.16c.2,2.52-.28,5.45-3,6.93a12.7,12.7,0,0,1-3.23.78c-.62.1-1.79.2-3.37.37a.19.19,0,0,1-.22-.17,0,0,0,0,1,0,0,6.25,6.25,0,0,1,1.51-4.15.36.36,0,0,1,.41-.1,12.49,12.49,0,0,1,1.85.87,2.43,2.43,0,0,1,1,1.79.13.13,0,0,0,.13.13h0a3.67,3.67,0,0,0,1.8-.73c2.14-1.68,2.21-4.52,1.8-6.84h0a19,19,0,0,0-3.74-8.3c-2-2.64-4.18-4.22-7.29-6.2,0,0-2-1.22-2.48-1.58a.31.31,0,0,1-.13-.25V26a.24.24,0,0,1,.26-.16l5,.63a2,2,0,0,0,1.91-.86l.25-.35a.47.47,0,0,0-.1-.66h0l-3.09-2a.85.85,0,0,1-.24-.26l-.45-.78a2.09,2.09,0,0,0-1.22-1l-2.38-.72a.35.35,0,0,0-.31.06L30,20.7c-1.36,1.43-5.19,5.94-5.55,10.79a18,18,0,0,0,.6,4.62c0,.07.11.08.15,0l1.48-2.19A2,2,0,0,0,27,32.79l.24-2.64a.5.5,0,0,1,.51-.49h0a.51.51,0,0,1,.49.51l-.1,2.74a3.14,3.14,0,0,1-.55,1.73s-3.3,5-3.47,5.28c-1.23,2.37,1.25,4.6,3.48,4.24a.12.12,0,0,0,.1-.14.09.09,0,0,0,0-.06l-.64-.71a2,2,0,0,1-.47-2.79l.07-.1,2.71-4a.5.5,0,0,1,.67-.24.49.49,0,0,1,.24.66.5.5,0,0,1-.08.12S27.88,40.62,27.68,41c-.35.7,0,1.3,2,3a13.3,13.3,0,0,0,2,1.36c.16.08.22,0,.2-.12-.42-1.35-.87-2.93-1-3.38a2.73,2.73,0,0,1,.4-2.08c.23-.36,2-3.05,2.27-3.49.84-1.15,2.57-1.14,3.92-.14a7.38,7.38,0,0,1,1.41,1.38.51.51,0,0,1,0,.69.48.48,0,0,1-.67,0l0,0A6.25,6.25,0,0,0,36.88,37a1.82,1.82,0,0,0-2.45,0c-.29.39-1.87,3-2.1,3.41a1.61,1.61,0,0,0-.23,1.33c.07.31,1.77,6.63,1.77,6.63A5.4,5.4,0,0,1,34,49.74a7.44,7.44,0,0,1-.24,2.15A4.39,4.39,0,0,1,33.28,53a.4.4,0,0,1-.34.23l-7.35.78c-1.2.13-1.15,1.56,0,1.56l15.82-.1c2,0,4.15-.44,5.3-1.88,1.87-2.33,1.7-5-.62-10"/></g></g></g></g></g></g></svg>