<svg xmlns="http://www.w3.org/2000/svg" viewBox="0 0 78.48 61.1"><defs><style>.cls-1{fill:#fff;}.cls-1,.cls-2,.cls-3{stroke:#343f63;stroke-linecap:round;stroke-linejoin:round;stroke-width:1.5px;}.cls-2{fill:#fef065;}.cls-3{fill:none;}</style></defs><title>Points_Reward</title><g id="Layer_2" data-name="Layer 2"><g id="Layer_1-2" data-name="Layer 1"><rect class="cls-1" x="9.72" y="46.49" width="46.02" height="9.07" rx="4.53"/><rect class="cls-1" x="9.72" y="37.42" width="46.02" height="9.07" rx="4.53"/><rect class="cls-1" x="9.72" y="28.35" width="46.02" height="9.07" rx="4.53"/><rect class="cls-1" x="9.72" y="19.09" width="46.02" height="9.07" rx="4.53"/><rect class="cls-1" x="0.75" y="0.75" width="46.02" height="9.07" rx="4.53"/><rect class="cls-1" x="22.64" y="9.82" width="46.02" height="9.07" rx="4.53"/><circle class="cls-2" cx="55.75" cy="38.36" r="21.98"/><path class="cls-2" d="M67.39,51.57a17.56,17.56,0,0,0,6-13.21"/><path class="cls-2" d="M43.3,25.91a17.55,17.55,0,0,0-5.16,12.45"/><path class="cls-3" d="M60.58,30.26c-4.8-4.66-13.42.86-9.58,5.38,2,2.36,8.34,1.62,10.12,5.87C64,48.44,52.81,50.68,49.9,45"/><line class="cls-3" x1="55.75" y1="25.74" x2="55.75" y2="28.51"/><line class="cls-3" x1="55.75" y1="48.22" x2="55.75" y2="50.98"/><circle class="cls-3" cx="46.73" cy="23.38" r="0.23"/><circle class="cls-3" cx="64.19" cy="54.25" r="0.23"/></g></g></svg>