<svg xmlns="http://www.w3.org/2000/svg" viewBox="0 0 69.83 69.83"><defs><style>.cls-1{fill:#fff;stroke-miterlimit:10;}.cls-1,.cls-3{stroke:#434867;}.cls-1,.cls-2,.cls-3{stroke-width:1.5px;}.cls-2{fill:#fef065;stroke:#343f63;}.cls-2,.cls-3{stroke-linecap:round;stroke-linejoin:round;}.cls-3{fill:none;}</style></defs><title>IG_Reward</title><g id="Layer_2" data-name="Layer 2"><g id="Layer_1-2" data-name="Layer 1"><g id="Layer_1-2-2" data-name="Layer 1-2"><rect class="cls-1" x="0.75" y="0.75" width="68.33" height="68.33" rx="11.74"/><path class="cls-2" d="M35.52,14.76c-5.7,0-6.42,0-8.66.12a15.36,15.36,0,0,0-5.1,1A10.2,10.2,0,0,0,18,18.25,10.32,10.32,0,0,0,15.62,22a15.62,15.62,0,0,0-1,5.1c-.1,2.24-.12,3-.12,8.66s0,6.42.12,8.66a15.62,15.62,0,0,0,1,5.1,10.73,10.73,0,0,0,6.14,6.14,15.36,15.36,0,0,0,5.1,1c2.24.1,3,.12,8.66.12s6.42,0,8.66-.12a15.36,15.36,0,0,0,5.1-1A10.36,10.36,0,0,0,53,53.25a10.19,10.19,0,0,0,2.42-3.72,15.36,15.36,0,0,0,1-5.1c.1-2.24.13-3,.13-8.66s0-6.42-.13-8.66a15.36,15.36,0,0,0-1-5.1,10.69,10.69,0,0,0-6.17-6.15,15.36,15.36,0,0,0-5.1-1c-2.24-.1-3-.12-8.66-.12Z"/><path class="cls-3" d="M35.41,24.25A11.58,11.58,0,1,0,47,35.87,11.57,11.57,0,0,0,35.41,24.25Z"/><path class="cls-3" d="M50.15,23.84a2.71,2.71,0,1,1-2.71-2.71h0a2.7,2.7,0,0,1,2.7,2.7Z"/></g></g></g></svg>