<svg xmlns="http://www.w3.org/2000/svg" viewBox="0 0 79.85 82.04"><defs><style>.cls-1{fill:#fef065;}.cls-1,.cls-2,.cls-4{stroke:#343f63;stroke-linecap:round;stroke-linejoin:round;stroke-width:1.5px;}.cls-2,.cls-3{fill:#fff;}.cls-4{fill:none;}</style></defs><title>Birthday_Reward</title><g id="Layer_2" data-name="Layer 2"><g id="Layer_1-2" data-name="Layer 1"><path class="cls-1" d="M43.52,7.36c0-2-3.59-6.61-3.59-6.61s-3.6,4.62-3.6,6.61a3.6,3.6,0,1,0,7.19,0Z"/><path class="cls-2" d="M12.75,50.62H67.1a6.18,6.18,0,0,1,6.18,6.18V75a0,0,0,0,1,0,0H6.57a0,0,0,0,1,0,0V56.8A6.18,6.18,0,0,1,12.75,50.62Z"/><path class="cls-2" d="M20.21,29.68H59.64a5.4,5.4,0,0,1,5.4,5.4V50.62a0,0,0,0,1,0,0H14.82a0,0,0,0,1,0,0V35.08A5.4,5.4,0,0,1,20.21,29.68Z"/><path class="cls-3" d="M14.82,38.05c3.13,0,3.13,3,6.27,3s3.14-3,6.28-3,3.13,3,6.27,3,3.14-3,6.28-3,3.13,3,6.27,3,3.14-3,6.28-3,3.14,3,6.28,3,3.14-3,6.29-3"/><path class="cls-4" d="M14.82,38.05c3.13,0,3.13,3,6.27,3s3.14-3,6.28-3,3.13,3,6.27,3,3.14-3,6.28-3,3.13,3,6.27,3,3.14-3,6.28-3,3.14,3,6.28,3,3.14-3,6.29-3"/><path class="cls-3" d="M6.57,60.74c3.33,0,3.33,2.67,6.67,2.67s3.33-2.67,6.67-2.67,3.33,2.67,6.67,2.67,3.33-2.67,6.66-2.67,3.34,2.67,6.67,2.67,3.34-2.67,6.68-2.67,3.33,2.67,6.66,2.67,3.34-2.67,6.68-2.67,3.34,2.67,6.68,2.67,3.34-2.67,6.68-2.67"/><path class="cls-4" d="M6.57,60.74c3.33,0,3.33,2.67,6.67,2.67s3.33-2.67,6.67-2.67,3.33,2.67,6.67,2.67,3.33-2.67,6.66-2.67,3.34,2.67,6.67,2.67,3.34-2.67,6.68-2.67,3.33,2.67,6.66,2.67,3.34-2.67,6.68-2.67,3.34,2.67,6.68,2.67,3.34-2.67,6.68-2.67"/><rect class="cls-1" x="37.18" y="13.68" width="5.48" height="16"/><path class="cls-1" d="M.75,75H79.1a0,0,0,0,1,0,0v0a6.28,6.28,0,0,1-6.28,6.28H7A6.28,6.28,0,0,1,.75,75v0a0,0,0,0,1,0,0Z"/><line class="cls-1" x1="39.93" y1="13.68" x2="39.93" y2="9.85"/></g></g></svg>