<svg xmlns="http://www.w3.org/2000/svg" viewBox="0 0 81.79 51.5"><defs><style>.cls-1{fill:#fef065;stroke:#343f63;stroke-linecap:round;stroke-linejoin:round;stroke-width:1.5px;}</style></defs><title>Review_Reward</title><g id="Layer_2" data-name="Layer 2"><g id="Layer_1-2" data-name="Layer 1"><polygon class="cls-1" points="7.46 0.75 9.54 4.95 14.18 5.63 10.82 8.9 11.61 13.52 7.46 11.34 3.31 13.52 4.11 8.9 0.75 5.63 5.39 4.95 7.46 0.75"/><polygon class="cls-1" points="24.29 0.75 26.36 4.95 31 5.63 27.64 8.9 28.44 13.52 24.29 11.34 20.14 13.52 20.93 8.9 17.57 5.63 22.21 4.95 24.29 0.75"/><polygon class="cls-1" points="41.29 0.75 43.36 4.95 48 5.63 44.64 8.9 45.44 13.52 41.29 11.34 37.14 13.52 37.93 8.9 34.57 5.63 39.21 4.95 41.29 0.75"/><polygon class="cls-1" points="57.81 0.75 59.88 4.95 64.52 5.63 61.16 8.9 61.96 13.52 57.81 11.34 53.66 13.52 54.45 8.9 51.09 5.63 55.73 4.95 57.81 0.75"/><polygon class="cls-1" points="74.33 0.75 76.4 4.95 81.04 5.63 77.69 8.9 78.48 13.52 74.33 11.34 70.18 13.52 70.97 8.9 67.62 5.63 72.25 4.95 74.33 0.75"/><line class="cls-1" x1="6.61" y1="32.77" x2="75.96" y2="32.77"/><line class="cls-1" x1="6.61" y1="41.7" x2="75.96" y2="41.7"/><line class="cls-1" x1="6.61" y1="50.63" x2="49.78" y2="50.63"/><polygon class="cls-1" points="69.55 27.68 52.55 44.68 49.78 50.75 55.86 47.98 72.85 30.99 69.55 27.68"/></g></g></svg>