<svg xmlns="http://www.w3.org/2000/svg" width="270" height="455">
    <path fill="#F7EC13" fill-rule="evenodd" d="M254.827 433.308c-12.769 15.787-37.241 20.603-58.893 20.603-.351 0-170.464 1.089-175.813 1.089-12.99 0-13.568-15.696-.219-17.124 20.123-2.151 77.617-8.188 81.615-8.561 1.607-.15 3.042-1.076 3.797-2.488 2.182-4.076 3.164-8.338 4.167-12.684 2.163-9.353 2.928-15.835 2.677-23.664.064-5.283-.391-10.088-1.216-14.581 0 0-18.967-69.471-19.666-72.931-1.116-5.518-.943-8.873 2.529-14.565 2.531-4.147 20.069-33.275 23.316-37.557 4.369-5.766 16.726-7.642 27.2.042 3.815 2.794 9.291 6.08 14.553 12.607 1.899 2.348 5.403 2.678 7.719.673 2.194-1.903 2.28-5.274.447-7.527-4.838-5.951-9.939-11.032-15.638-15.207-15.043-11.023-34.281-11.147-43.617 1.553-3.522 4.791-22.708 34.415-25.226 38.358-6.172 9.663-6.115 16.836-4.68 23.929 1.004 4.969 6.017 22.359 10.662 37.233.264.838-.433 2.141-2.165 1.284-6.928-3.425-18.284-11.711-22.085-14.991-22.166-19.134-25.576-25.645-21.652-33.408 2.28-4.51 28.193-45.365 28.193-45.365 1.666-2.538.938-5.93-1.631-7.58-2.53-1.664-5.998-.92-7.664 1.616l-30.156 43.619c-7.729 11.879-6.064 21.415 4.441 31.821l7.297 7.397c.705.812.25 2.09-.819 2.26-24.748 3.949-52.346-20.527-38.634-46.618 1.856-3.531 38.52-58.012 38.52-58.012a34.866 34.866 0 0 0 6.124-19.079l1.111-30.105c.067-3.026-2.358-5.528-5.421-5.593-3.033-.101-5.59 2.336-5.656 5.363l-2.342 29.235a22.821 22.821 0 0 1-4.01 12.487l-16.498 24.055c-.453.662-1.483.48-1.661-.296-3.684-16.259-7.767-36.605-6.69-50.79C11.182 136.488 53.769 86.96 68.889 71.235l8.393-9.172c.515-.545 1.732-.963 3.464-.643l26.464 7.942a23.62 23.62 0 0 1 13.615 10.771l4.978 8.62a8.076 8.076 0 0 0 2.625 2.759l34.39 22.232c2.514 1.62 3.167 4.983 1.437 7.408l-2.721 3.825c-4.809 6.762-12.962 10.399-21.27 9.487 0 0-49.124-6.118-56.053-6.975-2.003-.247-2.768 1.242-2.841 1.779-.039.279-.108.616-.19.974V144.2c0 1.124.558 2.172 1.5 2.802 5.944 3.973 27.513 17.323 27.513 17.323 34.669 21.828 58.857 39.129 81.074 68.19 35.846 46.884 41.393 90.071 41.618 91.298a.48.48 0 0 1 .016.097c4.642 25.5 3.876 56.736-19.923 75.169-1.7 1.321-9.249 6.817-20.003 8.071-.943.11-1.782-.565-1.761-1.501.152-7.392-5.3-15.672-10.686-19.594-4.514-3.288-17.321-8.154-20.555-9.655-1.609-.749-3.403-.203-4.567 1.12-5.374 6.104-10.57 15.526-13.734 24.438-1.101 3.099-3.489 15.388-3.133 21.255.08 1.329 1.266 2.318 2.603 2.172 17.592-1.917 30.536-2.997 37.47-4.07 19.004-2.938 31.372-6.128 35.905-8.592 29.918-16.249 35.234-48.509 33.003-76.159-.008-.124-1.507-10.535-2.219-12.763-.467-1.455 1.587-2.783 2.627-.557 25.823 55.299 27.685 84.366 6.899 110.064zM75.658 54.247c-1.263.987-2.814.32-2.958-.922-.699-6.031-2.755-20.84 1.368-29.808C83.264 3.514 110.787.175 117.79-.011c.725-.02 1.136.808.682 1.363L75.658 54.247z"/>
</svg>
