<svg xmlns="http://www.w3.org/2000/svg" width="94.05" height="94.05">
    <path fill="#F8EF65" fill-rule="evenodd" d="M81.35 3.35l2 4 6 2 1 2-2 4-1 2-1 5-1 1-4-1-2-1-5 3-1-1-1-4 1-3-1-2-4-4 2-1 5-1 2-4 2-2 2 1zM49.35 3.35l2 4 6 2 1 2-2 4-1 2-1 5-1 1-4-1-2-1-5 3-1-1-1-4 1-3-1-2-4-4 2-1 5-1 2-4 2-2 2 1zM13.35 3.35l2 4 6 2 1 2-2 4-1 2-1 5-1 1-4-1-2-1-5 3-1-1-1-4 1-3-1-2-4-4 2-1 5-1 2-4 2-2 2 1z"/>
    <path fill="#333F63" fill-rule="evenodd" stroke="#FFF" stroke-width=".7" d="M92.425 13.117L88.4 17.042l.952 5.541a3.036 3.036 0 0 1-1.216 2.991c-.948.69-2.182.78-3.22.234l-4.977-2.615-4.975 2.618a3.043 3.043 0 0 1-3.22-.232 3.04 3.04 0 0 1-1.218-2.991l.949-5.541-4.027-3.923a3.04 3.04 0 0 1-.774-3.134 3.037 3.037 0 0 1 2.468-2.083l5.563-.81 2.486-5.042A3.04 3.04 0 0 1 79.933.35h.001a3.04 3.04 0 0 1 2.742 1.704l2.489 5.041 5.563.807a3.039 3.039 0 0 1 2.47 2.08 3.041 3.041 0 0 1-.773 3.135zm-8.081-2.47a3.056 3.056 0 0 1-2.302-1.673l-2.108-4.267-2.105 4.268a3.057 3.057 0 0 1-2.302 1.674l-4.71.685 3.409 3.321a3.062 3.062 0 0 1 .881 2.707l-.804 4.691 4.212-2.216a3.057 3.057 0 0 1 2.846 0l4.213 2.213-.805-4.691a3.059 3.059 0 0 1 .878-2.707l3.407-3.322-4.71-.683zm-9.472 44.817v15.327c0 4.452-.676 8.865-2.009 13.115l-2.562 8.17a1.817 1.817 0 0 1-3.466-1.087l2.562-8.171a40.15 40.15 0 0 0 1.842-12.027V55.464a2.554 2.554 0 0 0-2.551-2.551 2.553 2.553 0 0 0-2.551 2.551v5.331a1.817 1.817 0 0 1-3.633 0v-8.549a2.554 2.554 0 0 0-2.551-2.551 2.554 2.554 0 0 0-2.552 2.551v8.549a1.816 1.816 0 1 1-3.632 0V49.479a2.555 2.555 0 0 0-2.552-2.551 2.555 2.555 0 0 0-2.551 2.551v11.316a1.816 1.816 0 1 1-3.633 0V35.164a2.553 2.553 0 0 0-2.551-2.551 2.554 2.554 0 0 0-2.551 2.551v17.787l.001.003v13.868a1.816 1.816 0 0 1-3.415.863l-5.129-9.498a2.776 2.776 0 0 0-3.711-1.165 2.78 2.78 0 0 0-1.455 3.145l3.326 13.783a21.243 21.243 0 0 0 3.52 7.597l6.514 8.915a1.816 1.816 0 1 1-2.933 2.143l-6.515-8.914a24.882 24.882 0 0 1-4.118-8.889l-3.325-13.783a6.397 6.397 0 0 1 3.35-7.24 6.39 6.39 0 0 1 8.543 2.682l1.715 3.176v-6.61l-.001-.002V35.164a6.19 6.19 0 0 1 6.184-6.184 6.19 6.19 0 0 1 6.184 6.184v8.684a6.15 6.15 0 0 1 2.551-.553 6.192 6.192 0 0 1 5.621 3.611 6.145 6.145 0 0 1 3.115-.844 6.193 6.193 0 0 1 5.774 3.975 6.146 6.146 0 0 1 2.961-.757 6.191 6.191 0 0 1 6.184 6.184zM55.314 17.042l.952 5.541a3.036 3.036 0 0 1-1.216 2.991c-.948.69-2.182.78-3.22.234l-4.977-2.615-4.975 2.617a3.048 3.048 0 0 1-3.221-.231 3.04 3.04 0 0 1-1.217-2.991l.949-5.541-4.027-3.923a3.04 3.04 0 0 1-.774-3.134 3.037 3.037 0 0 1 2.468-2.083l5.563-.81 2.486-5.042A3.04 3.04 0 0 1 46.847.35h.001a3.04 3.04 0 0 1 2.742 1.704l2.489 5.041 5.564.807a3.039 3.039 0 0 1 2.469 2.08 3.041 3.041 0 0 1-.773 3.135l-4.025 3.925zm-4.055-6.395a3.059 3.059 0 0 1-2.303-1.673l-2.108-4.267-2.105 4.268a3.057 3.057 0 0 1-2.302 1.674l-4.71.685 3.409 3.321a3.061 3.061 0 0 1 .881 2.707l-.804 4.691 4.212-2.216a3.056 3.056 0 0 1 2.847 0l4.213 2.213-.806-4.691a3.056 3.056 0 0 1 .879-2.707l3.407-3.322-4.71-.683zm-29.031 6.395l.952 5.541a3.04 3.04 0 0 1-1.215 2.992 3.042 3.042 0 0 1-3.221.233l-4.977-2.615-4.975 2.618a3.043 3.043 0 0 1-3.22-.232 3.04 3.04 0 0 1-1.218-2.991l.949-5.541-4.027-3.923a3.04 3.04 0 0 1-.774-3.135A3.039 3.039 0 0 1 2.97 7.907l5.563-.81 2.486-5.042A3.04 3.04 0 0 1 13.761.35h.001a3.04 3.04 0 0 1 2.742 1.704l2.489 5.041 5.564.807a3.039 3.039 0 0 1 2.469 2.08 3.041 3.041 0 0 1-.773 3.135l-4.025 3.925zm-4.055-6.395a3.059 3.059 0 0 1-2.303-1.673l-2.108-4.267-2.105 4.268a3.057 3.057 0 0 1-2.302 1.674l-4.709.685 3.408 3.322a3.056 3.056 0 0 1 .88 2.706l-.803 4.691 4.213-2.216a3.054 3.054 0 0 1 2.846 0l4.213 2.213-.806-4.691a3.056 3.056 0 0 1 .879-2.707l3.407-3.322-4.71-.683z"/>
</svg>
